<svg xmlns="http://www.w3.org/2000/svg" viewBox="0 0 500 500" width="500" height="500" preserveAspectRatio="xMidYMid meet">
  <defs>
    <linearGradient id="favGold" x1="0%" y1="0%" x2="0%" y2="100%">
      <stop offset="0%" stop-color="#F7BA2A"/>
      <stop offset="50%" stop-color="#EAA61E"/>
      <stop offset="100%" stop-color="#DE9310"/>
    </linearGradient>
    <linearGradient id="favBlue" x1="0%" y1="0%" x2="0%" y2="100%">
      <stop offset="0%" stop-color="#3448A4"/>
      <stop offset="100%" stop-color="#26388C"/>
    </linearGradient>
    <clipPath id="favClip">
      <circle cx="250" cy="150" r="95"/>
    </clipPath>
  </defs>

  <circle cx="250" cy="250" r="245" fill="#FFFFFF"/>

  <g clip-path="url(#favClip)">
    <rect x="120" y="30" width="260" height="240" fill="url(#favBlue)"/>
    <path d="M 140,175 C 158,172 178,148 210,135 C 232,125 248,170 270,182 C 292,192 312,160 332,148 C 342,142 352,145 362,148 L 362,260 L 140,260 Z" fill="url(#favGold)"/>
    <path d="M 148,172 C 153,156 175,118 212,118 C 236,118 248,162 268,165 C 286,168 305,130 330,130 C 342,130 352,138 356,145 C 346,148 336,150 325,146 C 304,140 288,182 268,182 C 245,182 232,136 212,136 C 182,136 165,170 152,185 Z" fill="#FFFFFF"/>
    <path d="M 150,178 C 155,168 164,160 174,160 C 165,166 158,178 154,192 Z" fill="#FFFFFF"/>
    <path d="M 356,145 C 345,128 332,126 316,132 C 332,130 346,136 354,150 Z" fill="#FFFFFF"/>
  </g>

  <text x="250" y="325" text-anchor="middle" font-family="'Montserrat', 'Arial Black', sans-serif" font-weight="900" font-size="90" fill="#26388C" letter-spacing="3">NIMA</text>
  <text x="250" y="380" text-anchor="middle" font-family="'Montserrat', 'Arial Black', sans-serif" font-weight="900" font-size="40" fill="#DB9816" letter-spacing="4">ELEVATORS</text>
</svg>
